<mxfile host="65bd71144e">
    <diagram id="HTj2HzXZRO0wpf3ml96P" name="Page-1">
        <mxGraphModel dx="843" dy="479" grid="1" gridSize="10" guides="1" tooltips="1" connect="1" arrows="1" fold="1" page="1" pageScale="1" pageWidth="850" pageHeight="1100" math="0" shadow="0">
            <root>
                <mxCell id="0"/>
                <mxCell id="1" parent="0"/>
                <mxCell id="2" value="GitHub" style="swimlane;fillColor=#d5e8d4;strokeColor=#82b366;startSize=20;" parent="1" vertex="1">
                    <mxGeometry x="10" y="20" width="210" height="370" as="geometry">
                        <mxRectangle x="10" y="20" width="70" height="20" as="alternateBounds"/>
                    </mxGeometry>
                </mxCell>
                <mxCell id="6" value="eda-gitops-catalog&lt;br&gt;&lt;br&gt;&lt;br&gt;Operators subscriptions" style="rounded=0;whiteSpace=wrap;html=1;verticalAlign=top;fontSize=8;fillColor=#d5e8d4;strokeColor=#82b366;" parent="2" vertex="1">
                    <mxGeometry x="10" y="30" width="180" height="50" as="geometry"/>
                </mxCell>
                <mxCell id="16" style="edgeStyle=orthogonalEdgeStyle;html=1;fontSize=8;curved=1;exitX=0.25;exitY=0;exitDx=0;exitDy=0;" parent="2" source="7" target="6" edge="1">
                    <mxGeometry relative="1" as="geometry">
                        <Array as="points">
                            <mxPoint x="10" y="280"/>
                            <mxPoint x="10" y="100"/>
                            <mxPoint x="40" y="100"/>
                        </Array>
                    </mxGeometry>
                </mxCell>
                <mxCell id="7" value="&amp;lt;&amp;gt;-solution-gitops&lt;br&gt;&lt;br&gt;Applications deployments&lt;br&gt;&lt;br&gt;Services deployments" style="rounded=0;whiteSpace=wrap;html=1;verticalAlign=top;fontSize=8;fillColor=#d5e8d4;strokeColor=#82b366;" parent="2" vertex="1">
                    <mxGeometry x="10" y="280" width="180" height="70" as="geometry"/>
                </mxCell>
                <mxCell id="71" style="edgeStyle=orthogonalEdgeStyle;curved=1;html=1;entryX=0.5;entryY=1;entryDx=0;entryDy=0;" edge="1" parent="2" source="70" target="6">
                    <mxGeometry relative="1" as="geometry"/>
                </mxCell>
                <mxCell id="70" value="infra-gitops&lt;br&gt;&lt;br&gt;bootstrap- gitops&lt;br&gt;&lt;br&gt;ArgoCD apps&lt;br&gt;&lt;br&gt;environment (namespaces...)&lt;br&gt;&lt;br&gt;CP4BA product deployment" style="rounded=0;whiteSpace=wrap;html=1;verticalAlign=top;fontSize=8;fillColor=#d5e8d4;strokeColor=#82b366;" vertex="1" parent="2">
                    <mxGeometry x="20" y="130" width="160" height="100" as="geometry"/>
                </mxCell>
                <mxCell id="3" value="OpenShift Cluster" style="swimlane;fillColor=#f8cecc;strokeColor=#b85450;" parent="1" vertex="1">
                    <mxGeometry x="260" y="20" width="590" height="440" as="geometry"/>
                </mxCell>
                <mxCell id="8" value="&lt;solution&gt;-dev" style="swimlane;fontSize=8;fillColor=#dae8fc;strokeColor=#6c8ebf;" parent="3" vertex="1">
                    <mxGeometry x="10" y="30" width="270" height="210" as="geometry"/>
                </mxCell>
                <mxCell id="24" value="Workflow Server" style="rounded=0;whiteSpace=wrap;html=1;fontSize=8;strokeColor=none;fillColor=#dae8fc;" parent="8" vertex="1">
                    <mxGeometry x="7" y="60" width="80" height="20" as="geometry"/>
                </mxCell>
                <mxCell id="79" value="Navigator" style="rounded=0;whiteSpace=wrap;html=1;fontSize=8;strokeColor=none;fillColor=#dae8fc;" vertex="1" parent="8">
                    <mxGeometry x="10" y="30" width="80" height="20" as="geometry"/>
                </mxCell>
                <mxCell id="80" value="Automation Studio" style="rounded=0;whiteSpace=wrap;html=1;fontSize=8;strokeColor=none;fillColor=#dae8fc;" vertex="1" parent="8">
                    <mxGeometry x="182" y="30" width="80" height="20" as="geometry"/>
                </mxCell>
                <mxCell id="81" value="Workflow Authoring" style="rounded=0;whiteSpace=wrap;html=1;fontSize=8;strokeColor=none;fillColor=#dae8fc;" vertex="1" parent="8">
                    <mxGeometry x="95" y="30" width="80" height="20" as="geometry"/>
                </mxCell>
                <mxCell id="82" value="Content Platform Engine" style="rounded=0;whiteSpace=wrap;html=1;fontSize=8;strokeColor=none;fillColor=#dae8fc;" vertex="1" parent="8">
                    <mxGeometry x="95" y="60" width="80" height="20" as="geometry"/>
                </mxCell>
                <mxCell id="83" value="Resource Registry" style="rounded=0;whiteSpace=wrap;html=1;fontSize=8;strokeColor=none;fillColor=#dae8fc;" vertex="1" parent="8">
                    <mxGeometry x="182" y="60" width="80" height="20" as="geometry"/>
                </mxCell>
                <mxCell id="84" value="JMS" style="rounded=0;whiteSpace=wrap;html=1;fontSize=8;strokeColor=none;fillColor=#dae8fc;" vertex="1" parent="8">
                    <mxGeometry x="68" y="90" width="80" height="20" as="geometry"/>
                </mxCell>
                <mxCell id="9" value="&lt;solution&gt;-staging" style="swimlane;fontSize=8;fillColor=#dae8fc;strokeColor=#6c8ebf;" parent="3" vertex="1">
                    <mxGeometry x="290" y="30" width="270" height="210" as="geometry"/>
                </mxCell>
                <mxCell id="23" value="BAI" style="rounded=0;whiteSpace=wrap;html=1;fontSize=8;strokeColor=none;fillColor=#dae8fc;" parent="9" vertex="1">
                    <mxGeometry x="170" y="140" width="80" height="20" as="geometry"/>
                </mxCell>
                <mxCell id="11" value="openshift-operators" style="swimlane;fontSize=8;fillColor=#f8cecc;strokeColor=#b85450;" parent="3" vertex="1">
                    <mxGeometry x="10" y="280" width="270" height="150" as="geometry"/>
                </mxCell>
                <mxCell id="43" value="&amp;nbsp;Automation Foundation core operator" style="rounded=0;whiteSpace=wrap;html=1;fontSize=8;strokeColor=none;fillColor=#dae8fc;" parent="11" vertex="1">
                    <mxGeometry x="10" y="30" width="80" height="40" as="geometry"/>
                </mxCell>
                <mxCell id="44" value="Cloud Pak Foundational Services Operator" style="rounded=0;whiteSpace=wrap;html=1;fontSize=8;strokeColor=none;fillColor=#dae8fc;" parent="11" vertex="1">
                    <mxGeometry x="100" y="30" width="77" height="40" as="geometry"/>
                </mxCell>
                <mxCell id="86" value="&amp;nbsp;Automation Foundation operator" style="rounded=0;whiteSpace=wrap;html=1;fontSize=8;strokeColor=none;fillColor=#dae8fc;" vertex="1" parent="11">
                    <mxGeometry x="10" y="80" width="80" height="40" as="geometry"/>
                </mxCell>
                <mxCell id="91" value="&amp;nbsp;Automation Foundation Insights Engine operator" style="rounded=0;whiteSpace=wrap;html=1;fontSize=8;strokeColor=none;fillColor=#dae8fc;" vertex="1" parent="11">
                    <mxGeometry x="98.5" y="80" width="80" height="40" as="geometry"/>
                </mxCell>
                <mxCell id="92" value="&amp;nbsp;Cloud Pak Business Automation operator" style="rounded=0;whiteSpace=wrap;html=1;fontSize=8;strokeColor=none;fillColor=#dae8fc;" vertex="1" parent="11">
                    <mxGeometry x="185" y="30" width="80" height="40" as="geometry"/>
                </mxCell>
                <mxCell id="12" value="openshift-gitops" style="swimlane;fontSize=8;fillColor=#f8cecc;strokeColor=#b85450;" parent="3" vertex="1">
                    <mxGeometry x="290" y="360" width="270" height="70" as="geometry"/>
                </mxCell>
                <mxCell id="47" value="Argocd apps" style="rounded=0;whiteSpace=wrap;html=1;fontSize=8;" parent="12" vertex="1">
                    <mxGeometry x="104" y="35" width="80" height="20" as="geometry"/>
                </mxCell>
                <mxCell id="14" value="Argocd server" style="rounded=0;whiteSpace=wrap;html=1;fontSize=8;" parent="12" vertex="1">
                    <mxGeometry x="10" y="40" width="80" height="20" as="geometry"/>
                </mxCell>
                <mxCell id="19" value="Argocd apps" style="rounded=0;whiteSpace=wrap;html=1;fontSize=8;" parent="12" vertex="1">
                    <mxGeometry x="100" y="40" width="80" height="20" as="geometry"/>
                </mxCell>
                <mxCell id="4" value="OpenShift Production Cluster" style="swimlane;fillColor=#f8cecc;strokeColor=#b85450;" parent="1" vertex="1">
                    <mxGeometry x="170" y="500" width="650" height="280" as="geometry"/>
                </mxCell>
                <mxCell id="10" value="&lt;solution&gt;-prod" style="swimlane;fontSize=8;fillColor=#dae8fc;strokeColor=#6c8ebf;" parent="4" vertex="1">
                    <mxGeometry x="20" y="40" width="270" height="190" as="geometry"/>
                </mxCell>
                <mxCell id="58" value="openshift-operators" style="swimlane;fontSize=8;fillColor=#f8cecc;strokeColor=#b85450;" parent="4" vertex="1">
                    <mxGeometry x="350" y="40" width="260" height="60" as="geometry"/>
                </mxCell>
                <mxCell id="59" value="Event streams operator" style="rounded=0;whiteSpace=wrap;html=1;fontSize=8;strokeColor=none;fillColor=#dae8fc;" parent="58" vertex="1">
                    <mxGeometry x="10" y="30" width="80" height="20" as="geometry"/>
                </mxCell>
                <mxCell id="60" value="API Connect operator" style="rounded=0;whiteSpace=wrap;html=1;fontSize=8;strokeColor=none;fillColor=#dae8fc;" parent="58" vertex="1">
                    <mxGeometry x="153" y="30" width="80" height="20" as="geometry"/>
                </mxCell>
                <mxCell id="63" value="openshift-gitops" style="swimlane;fontSize=8;fillColor=#f8cecc;strokeColor=#b85450;" parent="4" vertex="1">
                    <mxGeometry x="350" y="120" width="260" height="70" as="geometry"/>
                </mxCell>
                <mxCell id="64" value="Argocd apps" style="rounded=0;whiteSpace=wrap;html=1;fontSize=8;" parent="63" vertex="1">
                    <mxGeometry x="104" y="35" width="80" height="20" as="geometry"/>
                </mxCell>
                <mxCell id="65" value="Argocd server" style="rounded=0;whiteSpace=wrap;html=1;fontSize=8;" parent="63" vertex="1">
                    <mxGeometry x="10" y="40" width="80" height="20" as="geometry"/>
                </mxCell>
                <mxCell id="66" value="Argocd apps" style="rounded=0;whiteSpace=wrap;html=1;fontSize=8;" parent="63" vertex="1">
                    <mxGeometry x="100" y="40" width="80" height="20" as="geometry"/>
                </mxCell>
                <mxCell id="68" style="edgeStyle=orthogonalEdgeStyle;curved=1;html=1;entryX=1;entryY=0.5;entryDx=0;entryDy=0;dashed=1;" parent="4" source="64" target="10" edge="1">
                    <mxGeometry relative="1" as="geometry"/>
                </mxCell>
                <mxCell id="67" style="edgeStyle=orthogonalEdgeStyle;html=1;entryX=0.5;entryY=1;entryDx=0;entryDy=0;curved=1;dashed=1;" parent="1" source="66" target="2" edge="1">
                    <mxGeometry relative="1" as="geometry">
                        <Array as="points">
                            <mxPoint x="660" y="780"/>
                            <mxPoint x="70" y="780"/>
                            <mxPoint x="70" y="450"/>
                            <mxPoint x="115" y="450"/>
                        </Array>
                    </mxGeometry>
                </mxCell>
            </root>
        </mxGraphModel>
    </diagram>
</mxfile>